# xmcd CD database file
#
# Track frame offsets:
#	150
#	17292
#	38617
#	56622
#	74190
#	94322
#	111182
#	125952
#	145787
#	169430
#
# Disc length: 2539 seconds
#
# Revision: 0
# Processed by: cddbd v1.5PL3 Copyright (c) Steve Scherf et al.
# Submitted via: CDex 1.51
#
DISCID=9309e90a
DTITLE=磯野テルオ - 果実
DYEAR=2000
DGENRE=JPop
TTITLE0=果実
TTITLE1=名もない星座たち(Album Version)
TTITLE2=トゥタン トゥタンと
TTITLE3=感じるままに
TTITLE4=風のような雨のような日々
TTITLE5=それが愛かもしれないから(Album Version)
TTITLE6=Love Love Love
TTITLE7=僕らの中に
TTITLE8=A day in may life
TTITLE9=Wonderland(Album Version)
EXTD=YEAR: 2000
EXTT0=
EXTT1=
EXTT2=
EXTT3=
EXTT4=
EXTT5=
EXTT6=
EXTT7=
EXTT8=
EXTT9=
PLAYORDER=
